<?xml version="1.0" encoding="utf-8"?>
<!-- Generator: Adobe Illustrator 23.0.2, SVG Export Plug-In . SVG Version: 6.00 Build 0)  -->
<svg version="1.1" id="Capa_1" xmlns="http://www.w3.org/2000/svg" xmlns:xlink="http://www.w3.org/1999/xlink" x="0px" y="0px"
	 viewBox="0 0 595.28 841.89" style="enable-background:new 0 0 595.28 841.89;" xml:space="preserve">
<style type="text/css">
	.st0{fill:#FFFFFF;}
</style>
<g>
	<path class="st0" d="M454.08,651.45c-138.52,0-277.04,0-415.68,0c0-148.48,0-296.96,0-445.44c0.31,1.63,0.76,3.25,0.91,4.9
		c0.57,5.9,1.48,11.74,3.05,17.46c2.62,9.5,6.96,18.1,14.35,24.79c9.92,8.98,21.61,13.54,35.07,12.8
		c9.65-0.53,16.81-6.77,19.09-16.13c0.25-1.05,0.36-2.13,0.56-3.32c-1.77-0.22-3.27-0.37-4.77-0.59
		c-16.11-2.32-28.8-10.08-37.61-23.86c-4.91-7.69-6.82-16.3-7.3-25.29c-0.96-18.03,4.94-33.66,16.82-47.05
		c6.89-7.76,15.63-12.39,26.04-13.42c5.88-0.58,11.8-0.93,17.71-1.09c4.88-0.13,8.41,2.26,10.29,6.81c0.6,1.46,1.1,3.04,1.27,4.6
		c0.45,4.13,0.93,8.28,0.99,12.42c0.14,10.4,0.04,20.8,0.04,31.19c-0.01,30.8-0.03,61.6-0.04,92.4
		c-0.01,32.48,0.04,64.96-0.04,97.44c-0.01,4.78-0.31,9.6-0.95,14.34c-0.87,6.5-2.44,12.88-5.16,18.9
		c-3.15,6.96-8.39,11.58-15.78,13.65c-2,0.56-4.04,0.95-6.08,1.32c-2.75,0.5-5.55,0.76-8.27,1.4c-3.15,0.74-4.39,2.33-4.69,5.55
		c-0.09,1.02-0.02,2.08,0.15,3.1c0.4,2.46,1.76,3.85,4.23,4.23c1.33,0.21,2.71,0.22,4.06,0.17c3.84-0.15,7.67-0.5,11.5-0.54
		c14.56-0.16,29.11-0.26,43.67-0.31c10.48-0.03,20.96-0.07,31.43,0.13c9.83,0.19,19.65,0.67,29.48,1.04
		c1.72,0.07,2.33-0.26,2.66-2.01c0.33-1.72,0.58-3.48,0.63-5.23c0.11-3.58-1.02-5.43-4.38-6.59c-2.55-0.88-5.25-1.35-7.9-1.91
		c-2.58-0.55-5.22-0.83-7.76-1.51c-8.17-2.21-13.44-7.41-15.63-15.63c-0.33-1.23-0.62-2.48-0.85-3.74
		c-1.31-7.28-1.3-14.62-1.13-21.99c0.43-19.59,0.68-39.18,1-58.78c0.22-13.75,0.42-27.51,0.64-41.26c0.05-3.21,0.75-3.91,4.03-3.89
		c2.48,0.01,4.96,0.15,7.43,0.18c10.4,0.11,20.8,0.21,31.19,0.29c8.93,0.07,16.52,3.22,22.74,9.67c4.04,4.18,7.21,8.96,9.95,14.05
		c1.02,1.9,1.95,3.85,2.93,5.77c1.9,3.73,4.75,6.6,8.17,8.93c0.89,0.6,1.9,0.88,2.95,0.33c1.1-0.57,0.82-1.6,0.84-2.54
		c0.22-10.18-0.8-20.29-1.63-30.41c-0.81-9.83-0.85-19.66,0-29.48c0.75-8.68,1.83-17.33,2.74-26c0.11-1.02,0.09-2.07-0.02-3.09
		c-0.22-2.07-1.48-3.39-3.44-3.83c-1.55-0.35-3.16-0.47-4.75-0.52c-1.78-0.05-3.07,0.87-3.7,2.53c-0.45,1.19-0.8,2.43-1.1,3.67
		c-3.46,14.23-13.73,23.71-28.15,25.95c-7.7,1.19-15.46,1.11-23.22,1.16c-7.43,0.05-14.87,0.1-22.3,0.15
		c-0.8,0.01-1.61,0.05-2.4-0.04c-2.57-0.31-3.71-1.49-3.76-4.09c-0.04-1.84,0.12-3.68,0.21-5.51c0.25-5.19,0.71-10.38,0.72-15.57
		c0.03-11.92-0.13-23.83-0.27-35.75c-0.23-19.27-0.5-38.55-0.76-57.82c-0.06-4.34,0.21-4.58,4.6-4.54
		c12.73,0.09,25.42,0.8,38.04,2.47c7.76,1.03,15.54,2.14,23.17,3.81c18.01,3.95,30.65,14.48,37.55,31.72
		c1.88,4.69,3.34,9.49,4.36,14.44c0.7,3.38,2.31,4.74,5.76,5.03c0.56,0.05,1.12,0.05,1.68,0.02c3.3-0.22,5.11-1.69,5.96-4.92
		c0.26-1,0.42-2.04,0.52-3.07c0.72-7.89,1.75-15.72,3.57-23.45c3.99-16.91,10.45-32.88,18.3-48.32c3.04-5.99,6.26-11.88,7.5-18.61
		c0.44-2.38,0.67-2.34-1.05-3.76c58.72,0,117.44,0,176.16,0c0,187.36,0,374.72,0,562.08c-17.12,0-34.24,0-51.36,0
		c1.96-0.64,3.92-1.3,5.89-1.91c2.26-0.69,3.54-1.99,3.16-4.54c-0.13-0.86-0.01-1.76-0.01-2.64c0-25.04,0-50.08,0-75.11
		c0-24.16-0.15-48.32,0.04-72.47c0.19-24.22-0.53-48.45,0.55-72.67c0.46-10.38,0.19-20.79,0.34-31.19
		c0.14-10.24,0.38-20.47,0.6-30.7c0.18-8.15,1.89-16.01,4.73-23.64c2.31-6.19,6.17-11.02,12.25-13.79c2.45-1.12,5.08-1.99,7.72-2.52
		c3.44-0.69,6.96-0.93,10.45-1.39c2.12-0.28,3.92-1.18,4.64-3.28c0.82-2.38,1.02-4.9-0.15-7.22c-0.74-1.46-2.3-1.95-3.86-2.07
		c-4.38-0.35-8.76-0.79-13.15-0.92c-7.99-0.24-15.99-0.27-23.99-0.4c-2.69-0.04-3.17-0.53-3.25-3.25c-0.02-0.48,0-0.96-0.01-1.44
		c-0.03-7.04-0.09-14.08-0.08-21.12c0.05-23.04,0.09-46.07,0.21-69.11c0.02-4.23,0.1-8.49,0.64-12.68
		c1.21-9.48,6.53-15.75,15.65-18.71c4.36-1.42,8.87-2.05,13.41-2.47c3.51-0.32,4.99-1.65,5.49-5.15c0.12-0.87,0.2-1.75,0.17-2.63
		c-0.1-2.93-1.49-4.58-4.4-5.13c-1.25-0.24-2.54-0.33-3.81-0.31c-11.75,0.17-23.51,0.39-35.26,0.56
		c-10.64,0.15-21.27,0.32-31.91,0.34c-3.09,0.01-5.01,1.04-6.32,3.98c-18.22,40.82-37.57,81.1-57.92,120.89
		c-16.23,31.75-32.86,63.29-49.32,94.92c-0.4,0.76-0.87,1.49-1.4,2.39c-0.49-0.56-0.88-0.94-1.19-1.38
		c-6.37-9.11-12.94-18.09-19.04-27.37c-5.13-7.81-9.75-15.96-14.52-24c-1.01-1.71-2.16-2.82-4.24-3.03
		c-2.39-0.25-4.32-1.6-6.04-3.22c-3.8-3.59-7.2-7.49-9.76-12.08c-1.32-2.38-2.7-4.72-4.1-7.05c-2.7-4.48-6.05-8.45-9.72-12.15
		c-2.37-2.38-5.15-4.03-8.61-4.3c-11.74-0.93-23.48-1.13-35.24-0.43c-0.69,0.04-1.37,0.19-2.28,0.31c0.29,0.94,0.46,1.7,0.76,2.41
		c1,2.44,2.01,4.88,3.08,7.29c5.7,12.81,12.7,24.92,19.84,36.96c7.83,13.21,11.79,27.57,12.5,42.84c0.23,5.03,0.1,10.07,0.07,15.11
		c-0.14,22.79-0.39,45.59-0.46,68.38c-0.09,29.12-0.59,58.22-2.1,87.3c-0.36,7.03-0.96,14.04-2.32,20.96
		c-1.53,7.82-3.97,15.31-8.03,22.21c-4.74,8.05-11.51,13.37-20.7,15.49c-3.97,0.91-7.94,1.83-11.9,2.82
		c-3.1,0.78-4.07,2.11-4.09,5.29c0,0.48,0.02,0.96,0.04,1.44c0.2,5.38,1.12,6.26,6.46,6.13c11.51-0.29,23.02-0.69,34.54-0.86
		c24.4-0.36,48.79-0.28,73.17,0.94c0.87,0.04,1.76,0.02,2.63-0.06c1.73-0.16,2.82-1.17,3.13-2.83c0.28-1.48,0.44-3.01,0.45-4.52
		c0.01-2.79-0.95-4.18-3.6-4.98c-2.29-0.69-4.64-1.26-7-1.57c-11.24-1.5-20.3-6.62-26.63-16.1c-2.12-3.17-3.93-6.61-5.42-10.12
		c-5.2-12.3-7.5-25.28-8.08-38.53c-0.58-13.26-0.75-26.54-0.94-39.81c-0.24-16.47-0.37-32.95-0.44-49.43
		c-0.1-21.28-0.1-42.55-0.13-63.83c0-0.49,0.16-0.99,0.32-1.9c0.72,1,1.18,1.64,1.63,2.28c7.75,11.17,15.24,22.53,23.3,33.47
		c48.59,66.05,97.91,131.53,150.61,194.39c6.06,7.23,11.91,14.64,17.82,22c2.58,3.21,5.61,5.68,9.76,6.5
		C453.71,651.11,453.89,651.32,454.08,651.45z M231.34,246.97c-0.42-0.98-0.66-1.57-0.92-2.15c-8.35-18.18-18.59-35.35-28.44-52.72
		c-0.08-0.14-0.17-0.27-0.26-0.4c-1.06-1.64-2.67-2.22-4.51-2.26c-1.29-0.03-1.76,0.44-1.81,1.67c-0.16,3.34-0.31,6.65-0.14,10.01
		c0.73,14.38,0.5,28.76-0.56,43.12c-0.18,2.4,0.18,2.79,2.6,2.86c0.24,0.01,0.48,0,0.72,0c10.23,0,20.46,0,30.7,0
		C229.48,247.09,230.25,247.02,231.34,246.97z"/>
	<path d="M454.08,651.45c-0.19-0.13-0.37-0.34-0.58-0.38c-4.15-0.82-7.18-3.29-9.76-6.5c-5.91-7.36-11.76-14.77-17.82-22
		c-52.7-62.87-102.02-128.35-150.61-194.39c-8.05-10.95-15.54-22.31-23.3-33.47c-0.45-0.65-0.91-1.28-1.63-2.28
		c-0.16,0.91-0.32,1.41-0.32,1.9c0.03,21.28,0.03,42.55,0.13,63.83c0.08,16.48,0.21,32.95,0.44,49.43
		c0.19,13.27,0.35,26.55,0.94,39.81c0.58,13.25,2.88,26.23,8.08,38.53c1.49,3.51,3.3,6.95,5.42,10.12
		c6.33,9.48,15.39,14.61,26.63,16.1c2.36,0.31,4.71,0.89,7,1.57c2.65,0.79,3.61,2.19,3.6,4.98c0,1.51-0.17,3.04-0.45,4.52
		c-0.31,1.66-1.4,2.67-3.13,2.83c-0.87,0.08-1.76,0.1-2.63,0.06c-24.38-1.22-48.77-1.3-73.17-0.94
		c-11.51,0.17-23.02,0.57-34.54,0.86c-5.34,0.13-6.26-0.75-6.46-6.13c-0.02-0.48-0.04-0.96-0.04-1.44c0.02-3.18,0.99-4.51,4.09-5.29
		c3.95-1,7.92-1.91,11.9-2.82c9.18-2.11,15.96-7.44,20.7-15.49c4.06-6.9,6.5-14.39,8.03-22.21c1.35-6.92,1.95-13.94,2.32-20.96
		c1.51-29.08,2.02-58.18,2.1-87.3c0.07-22.8,0.31-45.59,0.46-68.38c0.03-5.04,0.16-10.08-0.07-15.11
		c-0.71-15.27-4.67-29.63-12.5-42.84c-7.14-12.04-14.14-24.15-19.84-36.96c-1.07-2.41-2.08-4.85-3.08-7.29
		c-0.29-0.71-0.47-1.47-0.76-2.41c0.91-0.13,1.59-0.27,2.28-0.31c11.76-0.7,23.5-0.5,35.24,0.43c3.46,0.27,6.24,1.92,8.61,4.3
		c3.67,3.7,7.03,7.67,9.72,12.15c1.4,2.33,2.78,4.67,4.1,7.05c2.56,4.6,5.96,8.5,9.76,12.08c1.72,1.62,3.65,2.97,6.04,3.22
		c2.09,0.22,3.23,1.33,4.24,3.03c4.77,8.05,9.39,16.19,14.52,24c6.1,9.29,12.67,18.27,19.04,27.37c0.31,0.44,0.7,0.82,1.19,1.38
		c0.53-0.9,1-1.62,1.4-2.39c16.46-31.63,33.09-63.17,49.32-94.92c20.34-39.79,39.7-80.07,57.92-120.89
		c1.31-2.94,3.24-3.97,6.32-3.98c10.64-0.02,21.27-0.19,31.91-0.34c11.75-0.17,23.51-0.39,35.26-0.56c1.27-0.02,2.57,0.08,3.81,0.31
		c2.9,0.55,4.29,2.2,4.4,5.13c0.03,0.87-0.04,1.76-0.17,2.63c-0.5,3.5-1.99,4.83-5.49,5.15c-4.54,0.41-9.06,1.05-13.41,2.47
		c-9.11,2.96-14.44,9.23-15.65,18.71c-0.54,4.19-0.62,8.45-0.64,12.68c-0.12,23.04-0.17,46.07-0.21,69.11
		c-0.01,7.04,0.05,14.08,0.08,21.12c0,0.48-0.01,0.96,0.01,1.44c0.09,2.72,0.57,3.21,3.25,3.25c8,0.13,16,0.16,23.99,0.4
		c4.39,0.13,8.77,0.57,13.15,0.92c1.56,0.13,3.13,0.62,3.86,2.07c1.17,2.32,0.97,4.84,0.15,7.22c-0.73,2.1-2.53,3-4.64,3.28
		c-3.48,0.45-7.01,0.69-10.45,1.39c-2.64,0.53-5.27,1.4-7.72,2.52c-6.07,2.76-9.94,7.6-12.25,13.79
		c-2.84,7.63-4.55,15.48-4.73,23.64c-0.23,10.23-0.46,20.47-0.6,30.7c-0.15,10.4,0.13,20.81-0.34,31.19
		c-1.08,24.22-0.36,48.44-0.55,72.67c-0.19,24.16-0.04,48.32-0.04,72.47c0,25.04,0,50.08,0,75.11c0,0.88-0.12,1.78,0.01,2.64
		c0.38,2.55-0.9,3.85-3.16,4.54c-1.97,0.6-3.93,1.27-5.89,1.91C457.28,651.45,455.68,651.45,454.08,651.45z M416.31,225.04
		c-0.4,0.71-0.82,1.37-1.17,2.07c-9.57,18.99-19.31,37.9-28.68,57c-17.43,35.53-34.65,71.17-51.95,106.76
		c-2.17,4.46-4.36,8.9-6.5,13.37c-1.66,3.47-1.39,6.82,0.82,9.99c0.55,0.79,1.07,1.59,1.62,2.38c3.31,4.71,6.58,9.45,9.94,14.13
		c34.43,48.05,70.03,95.24,105.23,142.72c0.25,0.33,0.61,0.58,1.11,1.05c0.08-0.64,0.15-0.94,0.15-1.24
		c-0.02-20.24,0.03-40.48-0.1-60.71c-0.06-9.88-3.62-18.47-10.72-25.4c-4.69-4.58-9.58-8.95-14.48-13.31
		c-1.45-1.29-2.16-2.65-1.97-4.59c0.26-2.54,0.37-5.1,0.57-7.65c1.04-13.16,1.56-26.34,1.66-39.54c0.11-14.24,0.17-28.48,0.19-42.72
		c0.02-16.4-0.02-32.8-0.07-49.2c0-1.27-0.17-2.55-0.36-3.81c-0.37-2.4-1.85-3.9-4.15-4.43c-1.78-0.41-3.62-0.62-5.45-0.77
		c-2.23-0.19-4.48-0.13-6.7-0.35c-3.63-0.35-5.27-2.15-5.4-5.77c-0.03-0.88-0.04-1.77,0.09-2.63c0.41-2.76,1.85-4.01,4.64-4.27
		c3.5-0.32,7-0.63,10.49-1.05c4.46-0.54,5.12-1.28,5.05-5.84c-0.09-5.2-0.32-10.39-0.47-15.59c-0.57-19.18-1.13-38.37-1.69-57.55
		C417.97,226.85,417.79,225.7,416.31,225.04z"/>
	<path d="M334.08,89.37c1.72,1.42,1.48,1.38,1.05,3.76c-1.24,6.73-4.46,12.62-7.5,18.61c-7.84,15.45-14.31,31.41-18.3,48.32
		c-1.82,7.73-2.85,15.56-3.57,23.45c-0.09,1.03-0.25,2.07-0.52,3.07c-0.84,3.23-2.66,4.7-5.96,4.92c-0.56,0.04-1.12,0.03-1.68-0.02
		c-3.45-0.29-5.06-1.65-5.76-5.03c-1.02-4.95-2.48-9.75-4.36-14.44c-6.9-17.24-19.54-27.77-37.55-31.72
		c-7.64-1.67-15.42-2.78-23.17-3.81c-12.62-1.67-25.31-2.38-38.04-2.47c-4.39-0.03-4.66,0.21-4.6,4.54
		c0.26,19.27,0.53,38.55,0.76,57.82c0.14,11.92,0.3,23.83,0.27,35.75c-0.01,5.19-0.47,10.38-0.72,15.57
		c-0.09,1.84-0.24,3.68-0.21,5.51c0.05,2.59,1.19,3.78,3.76,4.09c0.79,0.09,1.6,0.05,2.4,0.04c7.43-0.05,14.87-0.1,22.3-0.15
		c7.76-0.05,15.52,0.03,23.22-1.16c14.42-2.23,24.69-11.72,28.15-25.95c0.3-1.24,0.65-2.48,1.1-3.67c0.63-1.66,1.92-2.58,3.7-2.53
		c1.59,0.05,3.2,0.17,4.75,0.52c1.96,0.44,3.22,1.76,3.44,3.83c0.11,1.02,0.12,2.07,0.02,3.09c-0.9,8.67-1.99,17.32-2.74,26
		c-0.85,9.81-0.81,19.65,0,29.48c0.83,10.12,1.85,20.23,1.63,30.41c-0.02,0.94,0.26,1.97-0.84,2.54c-1.05,0.54-2.06,0.27-2.95-0.33
		c-3.42-2.33-6.27-5.2-8.17-8.93c-0.98-1.92-1.91-3.87-2.93-5.77c-2.74-5.09-5.91-9.87-9.95-14.05c-6.23-6.44-13.82-9.6-22.74-9.67
		c-10.4-0.08-20.8-0.18-31.19-0.29c-2.48-0.03-4.96-0.17-7.43-0.18c-3.27-0.01-3.98,0.68-4.03,3.89
		c-0.22,13.75-0.42,27.51-0.64,41.26c-0.31,19.59-0.57,39.19-1,58.78c-0.16,7.37-0.18,14.71,1.13,21.99
		c0.23,1.26,0.52,2.5,0.85,3.74c2.19,8.22,7.47,13.42,15.63,15.63c2.54,0.69,5.18,0.96,7.76,1.51c2.65,0.57,5.35,1.03,7.9,1.91
		c3.36,1.15,4.49,3.01,4.38,6.59c-0.06,1.75-0.31,3.5-0.63,5.23c-0.33,1.75-0.94,2.08-2.66,2.01c-9.83-0.37-19.65-0.86-29.48-1.04
		c-10.48-0.2-20.96-0.17-31.43-0.13c-14.56,0.05-29.11,0.15-43.67,0.31c-3.84,0.04-7.67,0.39-11.5,0.54
		c-1.35,0.05-2.73,0.04-4.06-0.17c-2.47-0.38-3.83-1.78-4.23-4.23c-0.16-1.01-0.24-2.08-0.15-3.1c0.3-3.22,1.55-4.82,4.69-5.55
		c2.72-0.63,5.52-0.9,8.27-1.4c2.04-0.37,4.09-0.77,6.08-1.32c7.39-2.06,12.63-6.68,15.78-13.65c2.72-6.02,4.29-12.4,5.16-18.9
		c0.63-4.74,0.94-9.56,0.95-14.34c0.08-32.48,0.04-64.96,0.04-97.44c0.01-30.8,0.03-61.6,0.04-92.4c0-10.4,0.1-20.8-0.04-31.19
		c-0.05-4.15-0.53-8.29-0.99-12.42c-0.17-1.56-0.67-3.14-1.27-4.6c-1.88-4.55-5.41-6.95-10.29-6.81
		c-5.91,0.16-11.83,0.51-17.71,1.09c-10.41,1.02-19.14,5.65-26.04,13.42c-11.88,13.39-17.78,29.02-16.82,47.05
		c0.48,8.99,2.39,17.61,7.3,25.29c8.81,13.78,21.5,21.55,37.61,23.86c1.49,0.21,2.99,0.37,4.77,0.59c-0.2,1.19-0.31,2.27-0.56,3.32
		c-2.28,9.36-9.45,15.61-19.09,16.13c-13.46,0.74-25.15-3.82-35.07-12.8c-7.39-6.7-11.73-15.29-14.35-24.79
		c-1.58-5.71-2.49-11.56-3.05-17.46c-0.16-1.65-0.6-3.27-0.91-4.9c0-3.2,0-6.4,0-9.6c0.29-1.31,0.66-2.61,0.87-3.93
		c0.56-3.55,0.9-7.14,1.62-10.66c5.45-26.59,25.41-50.25,46.4-60.38c12.73-6.14,26.17-9.76,40.06-11.85
		c10.95-1.64,21.99-1.86,33.02-1.54c14.3,0.42,28.6,1.07,42.9,1.61c5.99,0.23,11.98,0.44,17.98,0.61c13.9,0.4,27.81,0.94,41.72,1.12
		c11.04,0.14,22.06-0.44,32.91-2.79c11.69-2.52,22.33-7.21,31.38-15.16c1.81-1.59,3.64-3.1,5.86-4.08
		C333.44,89.37,333.76,89.37,334.08,89.37z"/>
	<path class="st0" d="M333.12,89.37c-2.22,0.98-4.05,2.49-5.86,4.08c-9.05,7.95-19.7,12.64-31.38,15.16
		c-10.85,2.34-21.87,2.93-32.91,2.79c-13.91-0.17-27.81-0.71-41.72-1.12c-5.99-0.17-11.98-0.39-17.98-0.61
		c-14.3-0.54-28.6-1.19-42.9-1.61c-11.04-0.32-22.07-0.11-33.02,1.54c-13.9,2.09-27.34,5.71-40.06,11.85
		c-21,10.13-40.96,33.79-46.4,60.38c-0.72,3.51-1.05,7.11-1.62,10.66c-0.21,1.32-0.57,2.62-0.87,3.93c0-35.68,0-71.36,0-107.04
		C136.64,89.37,234.88,89.37,333.12,89.37z"/>
	<path d="M231.34,246.97c-1.09,0.05-1.86,0.12-2.63,0.12c-10.23,0.01-20.46,0-30.7,0c-0.24,0-0.48,0-0.72,0
		c-2.42-0.06-2.78-0.45-2.6-2.86c1.06-14.36,1.29-28.74,0.56-43.12c-0.17-3.36-0.02-6.68,0.14-10.01c0.06-1.23,0.52-1.7,1.81-1.67
		c1.84,0.04,3.45,0.62,4.51,2.26c0.09,0.13,0.18,0.27,0.26,0.4c9.85,17.37,20.09,34.54,28.44,52.72
		C230.68,245.4,230.92,245.99,231.34,246.97z"/>
	<path class="st0" d="M416.31,225.04c1.48,0.67,1.66,1.81,1.7,3.06c0.56,19.18,1.12,38.37,1.69,57.55
		c0.15,5.2,0.38,10.39,0.47,15.59c0.07,4.56-0.58,5.29-5.05,5.84c-3.49,0.42-6.99,0.74-10.49,1.05c-2.79,0.25-4.23,1.51-4.64,4.27
		c-0.13,0.86-0.12,1.76-0.09,2.63c0.13,3.62,1.77,5.42,5.4,5.77c2.22,0.21,4.47,0.16,6.7,0.35c1.83,0.15,3.66,0.36,5.45,0.77
		c2.3,0.53,3.79,2.03,4.15,4.43c0.19,1.26,0.35,2.54,0.36,3.81c0.04,16.4,0.09,32.8,0.07,49.2c-0.02,14.24-0.08,28.48-0.19,42.72
		c-0.1,13.2-0.62,26.38-1.66,39.54c-0.2,2.55-0.31,5.11-0.57,7.65c-0.19,1.94,0.52,3.29,1.97,4.59c4.9,4.36,9.79,8.73,14.48,13.31
		c7.1,6.93,10.65,15.52,10.72,25.4c0.13,20.24,0.08,40.48,0.1,60.71c0,0.3-0.07,0.6-0.15,1.24c-0.5-0.47-0.86-0.72-1.11-1.05
		c-35.2-47.48-70.79-94.67-105.23-142.72c-3.35-4.68-6.63-9.42-9.94-14.13c-0.55-0.79-1.07-1.59-1.62-2.38
		c-2.21-3.17-2.48-6.52-0.82-9.99c2.14-4.47,4.33-8.92,6.5-13.37c17.31-35.59,34.52-71.23,51.95-106.76
		c9.37-19.09,19.1-38.01,28.68-57C415.49,226.41,415.91,225.74,416.31,225.04z"/>
</g>
</svg>
